<svg width="37" height="57" viewBox="0 0 37 57" fill="none" xmlns="http://www.w3.org/2000/svg">
<path d="M16.875 2.8125V1.40625C16.875 1.03329 17.0232 0.675604 17.2869 0.411881C17.5506 0.148158 17.9083 0 18.2812 0C18.6542 0 19.0119 0.148158 19.2756 0.411881C19.5393 0.675604 19.6875 1.03329 19.6875 1.40625V2.8125C19.6875 3.18546 19.5393 3.54315 19.2756 3.80687C19.0119 4.07059 18.6542 4.21875 18.2812 4.21875C17.9083 4.21875 17.5506 4.07059 17.2869 3.80687C17.0232 3.54315 16.875 3.18546 16.875 2.8125ZM30.9375 8.4375C31.1222 8.43764 31.3052 8.40139 31.4759 8.33082C31.6466 8.26024 31.8017 8.15672 31.9324 8.02617L33.3387 6.61992C33.6025 6.35605 33.7508 5.99817 33.7508 5.625C33.7508 5.25183 33.6025 4.89395 33.3387 4.63008C33.0748 4.36621 32.7169 4.21797 32.3438 4.21797C31.9706 4.21797 31.6127 4.36621 31.3488 4.63008L29.9426 6.03633C29.7457 6.233 29.6116 6.48367 29.5572 6.7566C29.5029 7.02953 29.5307 7.31245 29.6373 7.56955C29.7438 7.82664 29.9242 8.04635 30.1556 8.20086C30.3871 8.35536 30.6592 8.43772 30.9375 8.4375ZM4.63008 8.02617C4.76073 8.15683 4.91584 8.26047 5.08655 8.33118C5.25726 8.40189 5.44023 8.43828 5.625 8.43828C5.80977 8.43828 5.99274 8.40189 6.16345 8.33118C6.33416 8.26047 6.48927 8.15683 6.61992 8.02617C6.75058 7.89552 6.85422 7.74041 6.92493 7.5697C6.99564 7.39899 7.03203 7.21602 7.03203 7.03125C7.03203 6.84648 6.99564 6.66351 6.92493 6.4928C6.85422 6.32209 6.75058 6.16698 6.61992 6.03633L5.21367 4.63008C4.9498 4.36621 4.59192 4.21797 4.21875 4.21797C3.84558 4.21797 3.4877 4.36621 3.22383 4.63008C2.95996 4.89395 2.81172 5.25183 2.81172 5.625C2.81172 5.99817 2.95996 6.35605 3.22383 6.61992L4.63008 8.02617ZM36.5625 30.9375V35.1562C36.5625 35.9022 36.2662 36.6175 35.7387 37.145C35.2113 37.6724 34.4959 37.9688 33.75 37.9688H2.8125C2.06658 37.9688 1.35121 37.6724 0.823762 37.145C0.296316 36.6175 0 35.9022 0 35.1562V30.9375C0 30.1916 0.296316 29.4762 0.823762 28.9488C1.35121 28.4213 2.06658 28.125 2.8125 28.125V22.5C2.81244 20.4587 3.21642 18.4375 4.00115 16.553C4.78588 14.6686 5.93585 12.958 7.38475 11.5201C8.83366 10.0821 10.5528 8.94518 12.4432 8.17476C14.3336 7.40435 16.3577 7.01571 18.399 7.03125C26.8629 7.09453 33.75 14.1135 33.75 22.6758V28.125C34.4959 28.125 35.2113 28.4213 35.7387 28.9488C36.2662 29.4762 36.5625 30.1916 36.5625 30.9375ZM19.4555 15.4494C22.7936 16.0102 25.3125 19.0406 25.3125 22.5C25.3125 22.873 25.4607 23.2306 25.7244 23.4944C25.9881 23.7581 26.3458 23.9062 26.7188 23.9062C27.0917 23.9062 27.4494 23.7581 27.7131 23.4944C27.9768 23.2306 28.125 22.873 28.125 22.5C28.125 17.6836 24.5971 13.4596 19.9195 12.6756C19.7366 12.6432 19.5491 12.6475 19.3678 12.688C19.1865 12.7285 19.015 12.8046 18.8633 12.9118C18.7116 13.0189 18.5826 13.1551 18.4838 13.3124C18.385 13.4698 18.3183 13.6451 18.2877 13.8283C18.257 14.0115 18.263 14.199 18.3052 14.3799C18.3474 14.5608 18.425 14.7316 18.5336 14.8823C18.6422 15.033 18.7796 15.1608 18.9378 15.2581C19.096 15.3554 19.272 15.4205 19.4555 15.4494ZM33.75 35.1562V30.9375H2.8125V35.1562H33.75Z" fill="white"/>
<path d="M13.2129 48.6758C13.1901 48.4479 13.1087 48.2526 12.9688 48.0898C12.8288 47.9238 12.6449 47.7985 12.417 47.7139C12.1891 47.626 11.9336 47.582 11.6504 47.582C11.3444 47.582 11.0742 47.6325 10.8398 47.7334C10.6055 47.8311 10.4232 47.9678 10.293 48.1436C10.1628 48.3193 10.0977 48.5195 10.0977 48.7441C10.1009 49.0729 10.236 49.3252 10.5029 49.501C10.7699 49.6735 11.0905 49.8053 11.4648 49.8965L12.168 50.0918C12.7148 50.2318 13.1852 50.4466 13.5791 50.7363C13.973 51.026 14.1699 51.4622 14.1699 52.0449C14.1699 52.4323 14.069 52.7822 13.8672 53.0947C13.6654 53.404 13.3708 53.6481 12.9834 53.8271C12.596 54.0062 12.1354 54.0957 11.6016 54.0957C11.1003 54.0957 10.6624 54.0143 10.2881 53.8516C9.91699 53.6855 9.62565 53.4561 9.41406 53.1631C9.20247 52.8669 9.08203 52.5234 9.05273 52.1328H9.95117C9.97396 52.3867 10.0618 52.6016 10.2148 52.7773C10.3678 52.9531 10.5648 53.085 10.8057 53.1729C11.0498 53.2575 11.3151 53.2982 11.6016 53.2949C11.9271 53.2949 12.2184 53.2428 12.4756 53.1387C12.736 53.0345 12.9395 52.8864 13.0859 52.6943C13.2357 52.499 13.3105 52.276 13.3105 52.0254C13.3105 51.8073 13.2487 51.625 13.125 51.4785C13.0046 51.332 12.8451 51.2132 12.6465 51.1221C12.4479 51.0309 12.2038 50.9447 11.9141 50.8633L11.0449 50.6289C10.4655 50.4596 10.0195 50.2253 9.70703 49.9258C9.39779 49.6263 9.24479 49.2454 9.24805 48.7832C9.24805 48.3926 9.35384 48.0475 9.56543 47.748C9.77702 47.4453 10.0684 47.2126 10.4395 47.0498C10.8105 46.8838 11.224 46.8008 11.6797 46.8008C12.1289 46.8008 12.5326 46.8822 12.8906 47.0449C13.252 47.2077 13.5368 47.4323 13.7451 47.7188C13.9535 48.002 14.0625 48.321 14.0723 48.6758H13.2129ZM21.4062 50.4336C21.4062 51.166 21.2728 51.8073 21.0059 52.3574C20.7389 52.9043 20.3678 53.3258 19.8926 53.6221C19.4206 53.9183 18.8835 54.0664 18.2812 54.0664C17.6758 54.0664 17.1354 53.9183 16.6602 53.6221C16.1882 53.3258 15.8187 52.9043 15.5518 52.3574C15.2881 51.8073 15.1562 51.166 15.1562 50.4336C15.1562 49.7012 15.2881 49.0615 15.5518 48.5146C15.8187 47.9645 16.1882 47.5413 16.6602 47.2451C17.1354 46.9489 17.6758 46.8008 18.2812 46.8008C18.8835 46.8008 19.4206 46.9489 19.8926 47.2451C20.3678 47.5413 20.7389 47.9645 21.0059 48.5146C21.2728 49.0615 21.4062 49.7012 21.4062 50.4336ZM16.0059 50.4336C16.0059 51.0228 16.1051 51.529 16.3037 51.9521C16.5023 52.3753 16.7725 52.696 17.1143 52.9141C17.4593 53.1322 17.8483 53.2428 18.2812 53.2461C18.7142 53.2428 19.1016 53.1322 19.4434 52.9141C19.7884 52.696 20.0602 52.3753 20.2588 51.9521C20.4574 51.529 20.5566 51.0228 20.5566 50.4336C20.5566 49.8411 20.4574 49.3333 20.2588 48.9102C20.0602 48.487 19.7884 48.1663 19.4434 47.9482C19.1016 47.7301 18.7142 47.6211 18.2812 47.6211C17.8483 47.6211 17.4593 47.7301 17.1143 47.9482C16.7725 48.1663 16.5023 48.487 16.3037 48.9102C16.1051 49.3333 16.0059 49.8411 16.0059 50.4336ZM26.5527 48.6758C26.5299 48.4479 26.4486 48.2526 26.3086 48.0898C26.1686 47.9238 25.9847 47.7985 25.7568 47.7139C25.529 47.626 25.2734 47.582 24.9902 47.582C24.6842 47.582 24.4141 47.6325 24.1797 47.7334C23.9453 47.8311 23.763 47.9678 23.6328 48.1436C23.5026 48.3193 23.4375 48.5195 23.4375 48.7441C23.4408 49.0729 23.5758 49.3252 23.8428 49.501C24.1097 49.6735 24.4303 49.8053 24.8047 49.8965L25.5078 50.0918C26.0547 50.2318 26.5251 50.4466 26.9189 50.7363C27.3128 51.026 27.5098 51.4622 27.5098 52.0449C27.5098 52.4323 27.4089 52.7822 27.207 53.0947C27.0052 53.404 26.7106 53.6481 26.3232 53.8271C25.9359 54.0062 25.4753 54.0957 24.9414 54.0957C24.4401 54.0957 24.0023 54.0143 23.6279 53.8516C23.2568 53.6855 22.9655 53.4561 22.7539 53.1631C22.5423 52.8669 22.4219 52.5234 22.3926 52.1328H23.291C23.3138 52.3867 23.4017 52.6016 23.5547 52.7773C23.7077 52.9531 23.9046 53.085 24.1455 53.1729C24.3896 53.2575 24.6549 53.2982 24.9414 53.2949C25.2669 53.2949 25.5583 53.2428 25.8154 53.1387C26.0758 53.0345 26.2793 52.8864 26.4258 52.6943C26.5755 52.499 26.6504 52.276 26.6504 52.0254C26.6504 51.8073 26.5885 51.625 26.4648 51.4785C26.3444 51.332 26.1849 51.2132 25.9863 51.1221C25.7878 51.0309 25.5436 50.9447 25.2539 50.8633L24.3848 50.6289C23.8053 50.4596 23.3594 50.2253 23.0469 49.9258C22.7376 49.6263 22.5846 49.2454 22.5879 48.7832C22.5879 48.3926 22.6937 48.0475 22.9053 47.748C23.1169 47.4453 23.4082 47.2126 23.7793 47.0498C24.1504 46.8838 24.5638 46.8008 25.0195 46.8008C25.4688 46.8008 25.8724 46.8822 26.2305 47.0449C26.5918 47.2077 26.8766 47.4323 27.085 47.7188C27.2933 48.002 27.4023 48.321 27.4121 48.6758H26.5527Z" fill="white"/>
</svg>
