<svg width="25" height="24" viewBox="0 0 25 24" fill="none" xmlns="http://www.w3.org/2000/svg">
<g id="ShippingContainer">
<path id="Vector" d="M22.5792 6.6234L12.623 3.77903C12.5216 3.74997 12.4152 3.74262 12.3108 3.75746L2.45487 5.16559C2.09802 5.21808 1.77181 5.39677 1.53546 5.66924C1.29911 5.94172 1.16829 6.2899 1.16675 6.65059V17.3493C1.16829 17.71 1.29911 18.0582 1.53546 18.3307C1.77181 18.6032 2.09802 18.7819 2.45487 18.8343L12.3108 20.2406C12.3459 20.2461 12.3813 20.2492 12.4167 20.25C12.4865 20.2501 12.556 20.2403 12.623 20.2209L22.5792 17.3765C22.8915 17.2861 23.1662 17.0971 23.3622 16.8377C23.5582 16.5784 23.665 16.2626 23.6667 15.9375V8.06246C23.665 7.73737 23.5582 7.42156 23.3622 7.1622C23.1662 6.90283 22.8915 6.71383 22.5792 6.6234ZM6.41675 11.25H4.91675C4.71784 11.25 4.52707 11.329 4.38642 11.4696C4.24577 11.6103 4.16675 11.8011 4.16675 12C4.16675 12.1989 4.24577 12.3896 4.38642 12.5303C4.52707 12.6709 4.71784 12.75 4.91675 12.75H6.41675V17.8856L2.66675 17.3493V6.65059L6.41675 6.11434V11.25ZM11.6667 18.6356L7.91675 18.0993V12.75H9.41675C9.61566 12.75 9.80643 12.6709 9.94708 12.5303C10.0877 12.3896 10.1667 12.1989 10.1667 12C10.1667 11.8011 10.0877 11.6103 9.94708 11.4696C9.80643 11.329 9.61566 11.25 9.41675 11.25H7.91675V5.90059L11.6667 5.36434V18.6356Z" fill="#AAAAAA"/>
</g>
</svg>
