<svg width="25" height="24" viewBox="0 0 25 24" fill="none" xmlns="http://www.w3.org/2000/svg">
<g id="Broadcast" clip-path="url(#clip0_33_724)">
<path id="Vector" d="M15.8332 12C15.8332 12.7417 15.6133 13.4667 15.2013 14.0834C14.7892 14.7001 14.2035 15.1807 13.5183 15.4646C12.8331 15.7484 12.0791 15.8227 11.3517 15.678C10.6242 15.5333 9.95604 15.1761 9.43159 14.6517C8.90714 14.1272 8.54999 13.459 8.4053 12.7316C8.2606 12.0042 8.33486 11.2502 8.61869 10.5649C8.90252 9.87972 9.38317 9.29406 9.99985 8.882C10.6165 8.46994 11.3416 8.25001 12.0832 8.25001C13.0778 8.25001 14.0316 8.6451 14.7349 9.34836C15.4382 10.0516 15.8332 11.0054 15.8332 12ZM19.5832 12C19.5855 10.1549 18.9053 8.3741 17.6736 7.00032C17.6084 6.92514 17.5289 6.86368 17.4397 6.81952C17.3506 6.77536 17.2535 6.74938 17.1542 6.74309C17.0549 6.73681 16.9554 6.75034 16.8614 6.78291C16.7674 6.81547 16.6808 6.86642 16.6066 6.93278C16.5325 6.99913 16.4723 7.07958 16.4296 7.16943C16.3868 7.25928 16.3624 7.35673 16.3577 7.45611C16.353 7.5555 16.3681 7.65482 16.4022 7.74831C16.4362 7.84179 16.4885 7.92757 16.5561 8.00064C17.5399 9.10066 18.0838 10.5247 18.0838 12.0005C18.0838 13.4763 17.5399 14.9003 16.5561 16.0003C16.4271 16.1491 16.3618 16.3425 16.3743 16.539C16.3867 16.7354 16.4759 16.9191 16.6225 17.0504C16.7692 17.1817 16.9616 17.2501 17.1582 17.2408C17.3549 17.2314 17.5399 17.1452 17.6736 17.0006C18.9051 15.6264 19.5853 13.8454 19.5832 12ZM7.61043 8.00064C7.67796 7.92757 7.73027 7.84179 7.76433 7.74831C7.79838 7.65482 7.8135 7.5555 7.80879 7.45611C7.80408 7.35673 7.77965 7.25928 7.73691 7.16943C7.69417 7.07958 7.63398 6.99913 7.55985 6.93278C7.48572 6.86642 7.39912 6.81547 7.30511 6.78291C7.21109 6.75034 7.11154 6.73681 7.01224 6.74309C6.91295 6.74938 6.81589 6.77536 6.72674 6.81952C6.63758 6.86368 6.5581 6.92514 6.49293 7.00032C5.2618 8.37483 4.58103 10.1552 4.58103 12.0005C4.58103 13.8457 5.2618 15.6261 6.49293 17.0006C6.62653 17.1452 6.81162 17.2314 7.00824 17.2408C7.20487 17.2501 7.39728 17.1817 7.54395 17.0504C7.69062 16.9191 7.77979 16.7354 7.79223 16.539C7.80467 16.3425 7.73937 16.1491 7.61043 16.0003C6.62564 14.9008 6.0811 13.4766 6.0811 12.0005C6.0811 10.5244 6.62564 9.10019 7.61043 8.00064ZM22.4492 7.62564C21.9003 6.32208 21.1095 5.13427 20.1186 4.12501C20.0503 4.05199 19.968 3.99336 19.8768 3.95257C19.7855 3.91178 19.6869 3.88966 19.587 3.8875C19.487 3.88535 19.3876 3.9032 19.2947 3.94001C19.2017 3.97683 19.117 4.03186 19.0457 4.10187C18.9743 4.17188 18.9176 4.25545 18.879 4.34768C18.8404 4.43991 18.8206 4.53893 18.8208 4.63892C18.821 4.7389 18.8412 4.83784 18.8802 4.9299C18.9192 5.02197 18.9762 5.1053 19.0479 5.17501C20.8355 6.99623 21.837 9.44623 21.837 11.9981C21.837 14.55 20.8355 17 19.0479 18.8213C18.9787 18.8916 18.9241 18.9748 18.8871 19.0662C18.85 19.1576 18.8314 19.2555 18.8322 19.3541C18.8329 19.4527 18.8531 19.5502 18.8916 19.6411C18.9301 19.7319 18.9861 19.8143 19.0564 19.8834C19.1267 19.9526 19.2099 20.0073 19.3013 20.0443C19.3928 20.0813 19.4906 20.1 19.5892 20.0992C19.6878 20.0984 19.7854 20.0782 19.8762 20.0398C19.967 20.0013 20.0494 19.9453 20.1186 19.875C21.6713 18.2894 22.7208 16.2803 23.1355 14.1001C23.5502 11.92 23.3114 9.66587 22.4492 7.62095V7.62564ZM3.09918 15.795C2.34978 14.0235 2.14165 12.0698 2.50102 10.1802C2.86039 8.29054 3.77118 6.54962 5.11855 5.17689C5.25804 5.03491 5.33542 4.84334 5.33366 4.64432C5.3319 4.4453 5.25115 4.25512 5.10918 4.11564C4.96721 3.97615 4.77564 3.89877 4.57661 3.90053C4.37759 3.90229 4.18742 3.98304 4.04793 4.12501C1.98373 6.22644 0.827148 9.05434 0.827148 12C0.827148 14.9457 1.98373 17.7736 4.04793 19.875C4.11623 19.948 4.19844 20.0067 4.28973 20.0475C4.38102 20.0882 4.47954 20.1104 4.5795 20.1125C4.67947 20.1147 4.77885 20.0968 4.87181 20.06C4.96478 20.0232 5.04944 19.9682 5.12083 19.8982C5.19221 19.8281 5.24888 19.7446 5.28749 19.6523C5.32611 19.5601 5.34589 19.4611 5.34568 19.3611C5.34547 19.2611 5.32526 19.1622 5.28626 19.0701C5.24725 18.9781 5.19024 18.8947 5.11855 18.825C4.26045 17.9513 3.57528 16.9233 3.09918 15.795Z" fill="#AAAAAA"/>
</g>
<defs>
<clipPath id="clip0_33_724">
<rect width="24" height="24" fill="white" transform="translate(0.083252)"/>
</clipPath>
</defs>
</svg>
