<svg width="30" height="30" viewBox="0 0 30 30" fill="none" xmlns="http://www.w3.org/2000/svg">
<g id="NavigationArrow">
<path id="Vector" d="M29.0626 14.2477C29.0598 14.6439 28.9296 15.0286 28.6914 15.3451C28.4531 15.6616 28.1194 15.8932 27.7395 16.0055L27.7161 16.0126L18.5755 18.5719L16.0161 27.7126L16.0091 27.736C15.8966 28.1158 15.665 28.4494 15.3485 28.6876C15.032 28.9258 14.6474 29.056 14.2513 29.059H14.2161C13.8277 29.0627 13.448 28.9438 13.131 28.7193C12.8139 28.4949 12.5757 28.1762 12.4501 27.8087L4.80478 7.19655C4.80231 7.19047 4.80035 7.1842 4.79892 7.1778C4.68467 6.84596 4.66584 6.48872 4.74458 6.14671C4.82332 5.8047 4.99647 5.49166 5.24432 5.24319C5.49218 4.99472 5.8048 4.8208 6.14661 4.74122C6.48842 4.66164 6.84571 4.67959 7.17783 4.79303L7.19658 4.79889L27.8122 12.4465C28.1855 12.5741 28.5082 12.8178 28.7331 13.1418C28.9581 13.4659 29.0735 13.8534 29.0626 14.2477Z" fill="#03103E"/>
</g>
</svg>
