<svg width="15" height="16" viewBox="0 0 15 16" fill="none" xmlns="http://www.w3.org/2000/svg">
<g id="CaretRight">
<path id="Vector" d="M10.6442 8.33166L5.95666 13.0192C5.91311 13.0627 5.8614 13.0973 5.8045 13.1208C5.7476 13.1444 5.68661 13.1565 5.62502 13.1565C5.56343 13.1565 5.50244 13.1444 5.44553 13.1208C5.38863 13.0973 5.33693 13.0627 5.29338 13.0192C5.24982 12.9756 5.21528 12.9239 5.19171 12.867C5.16814 12.8101 5.15601 12.7491 5.15601 12.6875C5.15601 12.6259 5.16814 12.5649 5.19171 12.508C5.21528 12.4511 5.24982 12.3994 5.29338 12.3559L9.64982 8.00002L5.29338 3.64416C5.20542 3.5562 5.15601 3.43691 5.15601 3.31252C5.15601 3.18813 5.20542 3.06883 5.29338 2.98088C5.38133 2.89292 5.50063 2.84351 5.62502 2.84351C5.74941 2.84351 5.8687 2.89292 5.95666 2.98088L10.6442 7.66838C10.6877 7.71191 10.7223 7.76361 10.7459 7.82051C10.7695 7.87742 10.7816 7.93842 10.7816 8.00002C10.7816 8.06162 10.7695 8.12261 10.7459 8.17952C10.7223 8.23643 10.6877 8.28812 10.6442 8.33166Z" fill="#03103E"/>
</g>
</svg>
