<svg width="25" height="24" viewBox="0 0 25 24" fill="none" xmlns="http://www.w3.org/2000/svg">
<g id="ph:lightbulb">
<path id="Vector" d="M17.2499 21.75C17.2499 21.9489 17.1709 22.1396 17.0302 22.2803C16.8896 22.4209 16.6988 22.5 16.4999 22.5H8.99988C8.80097 22.5 8.6102 22.4209 8.46955 22.2803C8.3289 22.1396 8.24988 21.9489 8.24988 21.75C8.24988 21.551 8.3289 21.3603 8.46955 21.2196C8.6102 21.079 8.80097 21 8.99988 21H16.4999C16.6988 21 16.8896 21.079 17.0302 21.2196C17.1709 21.3603 17.2499 21.551 17.2499 21.75ZM20.9999 9.74995C21.0031 11.0002 20.7207 12.2347 20.1741 13.3592C19.6275 14.4837 18.8313 15.4685 17.8461 16.2384C17.6619 16.3796 17.5124 16.561 17.4091 16.7688C17.3058 16.9767 17.2513 17.2054 17.2499 17.4375V18C17.2499 18.3978 17.0918 18.7793 16.8105 19.0606C16.5292 19.3419 16.1477 19.5 15.7499 19.5H9.74988C9.35205 19.5 8.97052 19.3419 8.68922 19.0606C8.40791 18.7793 8.24988 18.3978 8.24988 18V17.4375C8.24972 17.2081 8.197 16.9819 8.09575 16.7762C7.99449 16.5704 7.84742 16.3906 7.66582 16.2506C6.68313 15.4852 5.88742 14.5064 5.33892 13.3881C4.79042 12.2698 4.5035 11.0414 4.49988 9.79589C4.4755 5.32777 8.08675 1.60683 12.5511 1.49995C13.6511 1.47345 14.7453 1.66725 15.7693 2.06997C16.7933 2.47269 17.7264 3.07617 18.5137 3.84491C19.3009 4.61365 19.9265 5.53211 20.3534 6.54622C20.7804 7.56034 21.0002 8.64962 20.9999 9.74995ZM19.4999 9.74995C19.5001 8.84964 19.3203 7.95836 18.9709 7.1286C18.6215 6.29883 18.1097 5.54735 17.4655 4.91837C16.8214 4.2894 16.0579 3.79564 15.22 3.46618C14.3821 3.13671 13.4868 2.9782 12.5868 2.99995C8.9305 3.0862 5.98019 6.13027 5.99988 9.78652C6.0033 10.8052 6.23837 11.8097 6.6873 12.7242C7.13623 13.6386 7.78726 14.4389 8.59113 15.0646C8.95248 15.3456 9.24477 15.7054 9.44561 16.1167C9.64646 16.528 9.75054 16.9798 9.74988 17.4375V18H15.7499V17.4375C15.7509 16.9785 15.8568 16.5258 16.0594 16.1139C16.262 15.702 16.556 15.3419 16.9189 15.0609C17.7253 14.4307 18.377 13.6247 18.8243 12.7042C19.2716 11.7838 19.5027 10.7733 19.4999 9.74995ZM17.9896 8.87433C17.7951 7.78804 17.2725 6.78742 16.492 6.00717C15.7116 5.22692 14.7109 4.70451 13.6246 4.51027C13.5274 4.49389 13.428 4.49681 13.332 4.51886C13.236 4.5409 13.1453 4.58164 13.065 4.63875C12.9847 4.69586 12.9165 4.76821 12.8642 4.85169C12.8119 4.93517 12.7766 5.02813 12.7602 5.12527C12.7438 5.2224 12.7467 5.32181 12.7688 5.41782C12.7908 5.51383 12.8316 5.60456 12.8887 5.68482C12.9458 5.76509 13.0181 5.83332 13.1016 5.88562C13.1851 5.93792 13.2781 5.97327 13.3752 5.98964C14.9286 6.2512 16.2468 7.56933 16.5102 9.12558C16.5399 9.30026 16.6304 9.45879 16.7658 9.57307C16.9012 9.68736 17.0727 9.75002 17.2499 9.74995C17.2923 9.7497 17.3346 9.74625 17.3764 9.73964C17.5725 9.70617 17.7472 9.59621 17.8622 9.43394C17.9772 9.27167 18.023 9.07038 17.9896 8.87433Z" fill="#DBA196"/>
</g>
</svg>
