<svg width="25" height="25" viewBox="0 0 25 25" fill="none" xmlns="http://www.w3.org/2000/svg">
<g id="solar:user-circle-bold" clip-path="url(#clip0_33_755)">
<path id="Vector" fill-rule="evenodd" clip-rule="evenodd" d="M25 12.5C25 19.4037 19.4037 25 12.5 25C5.59625 25 0 19.4037 0 12.5C0 5.59625 5.59625 0 12.5 0C19.4037 0 25 5.59625 25 12.5ZM16.25 8.75C16.25 9.74456 15.8549 10.6984 15.1517 11.4017C14.4484 12.1049 13.4946 12.5 12.5 12.5C11.5054 12.5 10.5516 12.1049 9.84835 11.4017C9.14509 10.6984 8.75 9.74456 8.75 8.75C8.75 7.75544 9.14509 6.80161 9.84835 6.09835C10.5516 5.39509 11.5054 5 12.5 5C13.4946 5 14.4484 5.39509 15.1517 6.09835C15.8549 6.80161 16.25 7.75544 16.25 8.75ZM12.5 23.125C14.6453 23.1284 16.741 22.4793 18.5087 21.2638C19.2637 20.745 19.5862 19.7575 19.1462 18.9538C18.2375 17.2875 16.3625 16.25 12.5 16.25C8.6375 16.25 6.7625 17.2875 5.8525 18.9538C5.41375 19.7575 5.73625 20.745 6.49125 21.2638C8.259 22.4793 10.3547 23.1284 12.5 23.125Z" fill="#03103E"/>
</g>
<defs>
<clipPath id="clip0_33_755">
<rect width="25" height="25" fill="white"/>
</clipPath>
</defs>
</svg>
