<svg width="25" height="24" viewBox="0 0 25 24" fill="none" xmlns="http://www.w3.org/2000/svg">
<g id="Broadcast" clip-path="url(#clip0_29_814)">
<path id="Vector" d="M15.8333 11.9999C15.8333 12.7416 15.6134 13.4666 15.2013 14.0833C14.7893 14.7 14.2036 15.1806 13.5184 15.4644C12.8331 15.7483 12.0791 15.8225 11.3517 15.6778C10.6243 15.5331 9.9561 15.176 9.43165 14.6515C8.9072 14.1271 8.55005 13.4589 8.40536 12.7315C8.26066 12.004 8.33492 11.25 8.61875 10.5648C8.90258 9.8796 9.38323 9.29393 9.99991 8.88188C10.6166 8.46982 11.3416 8.24989 12.0833 8.24989C13.0779 8.24989 14.0317 8.64498 14.735 9.34824C15.4382 10.0515 15.8333 11.0053 15.8333 11.9999ZM19.5833 11.9999C19.5856 10.1548 18.9054 8.37398 17.6736 7.0002C17.6084 6.92502 17.529 6.86356 17.4398 6.8194C17.3506 6.77524 17.2536 6.74926 17.1543 6.74297C17.055 6.73669 16.9555 6.75022 16.8614 6.78278C16.7674 6.81535 16.6808 6.86629 16.6067 6.93265C16.5326 6.99901 16.4724 7.07946 16.4296 7.16931C16.3869 7.25915 16.3625 7.35661 16.3578 7.45599C16.353 7.55537 16.3682 7.6547 16.4022 7.74819C16.4363 7.84167 16.4886 7.92744 16.5561 8.00051C17.5399 9.10054 18.0838 10.5246 18.0838 12.0004C18.0838 13.4762 17.5399 14.9002 16.5561 16.0002C16.4272 16.1489 16.3619 16.3424 16.3743 16.5389C16.3868 16.7353 16.4759 16.919 16.6226 17.0503C16.7693 17.1816 16.9617 17.2499 17.1583 17.2406C17.3549 17.2313 17.54 17.1451 17.6736 17.0005C18.9052 15.6263 19.5854 13.8453 19.5833 11.9999ZM7.61049 8.00051C7.67802 7.92744 7.73033 7.84167 7.76439 7.74819C7.79845 7.6547 7.81356 7.55537 7.80885 7.45599C7.80414 7.35661 7.77971 7.25915 7.73697 7.16931C7.69423 7.07946 7.63404 6.99901 7.55991 6.93265C7.48578 6.86629 7.39918 6.81535 7.30517 6.78278C7.21115 6.75022 7.1116 6.73669 7.0123 6.74297C6.91301 6.74926 6.81595 6.77524 6.7268 6.8194C6.63764 6.86356 6.55816 6.92502 6.49299 7.0002C5.26186 8.37471 4.5811 10.1551 4.5811 12.0004C4.5811 13.8456 5.26186 15.626 6.49299 17.0005C6.62659 17.1451 6.81168 17.2313 7.0083 17.2406C7.20493 17.2499 7.39734 17.1816 7.54401 17.0503C7.69068 16.919 7.77985 16.7353 7.79229 16.5389C7.80473 16.3424 7.73943 16.1489 7.61049 16.0002C6.6257 14.9006 6.08116 13.4764 6.08116 12.0004C6.08116 10.5243 6.6257 9.10007 7.61049 8.00051ZM22.4492 7.62551C21.9003 6.32196 21.1095 5.13415 20.1186 4.12489C20.0503 4.05187 19.9681 3.99324 19.8768 3.95245C19.7855 3.91166 19.687 3.88954 19.587 3.88738C19.4871 3.88523 19.3877 3.90308 19.2947 3.93989C19.2018 3.9767 19.1171 4.03173 19.0457 4.10174C18.9743 4.17175 18.9177 4.25533 18.8791 4.34756C18.8404 4.43979 18.8207 4.53881 18.8209 4.6388C18.8211 4.73878 18.8413 4.83772 18.8803 4.92978C18.9193 5.02185 18.9763 5.10518 19.048 5.17489C20.8356 6.99611 21.837 9.44611 21.837 11.998C21.837 14.5499 20.8356 16.9999 19.048 18.8211C18.9788 18.8914 18.9241 18.9747 18.8871 19.0661C18.8501 19.1575 18.8314 19.2553 18.8322 19.354C18.833 19.4526 18.8532 19.5501 18.8917 19.641C18.9301 19.7318 18.9861 19.8141 19.0564 19.8833C19.1267 19.9525 19.21 20.0072 19.3014 20.0442C19.3928 20.0812 19.4906 20.0999 19.5893 20.0991C19.6879 20.0983 19.7854 20.0781 19.8762 20.0396C19.9671 20.0012 20.0494 19.9452 20.1186 19.8749C21.6713 18.2893 22.7209 16.2802 23.1356 14.1C23.5502 11.9198 23.3114 9.66575 22.4492 7.62083V7.62551ZM3.09924 15.7949C2.34984 14.0234 2.14171 12.0697 2.50108 10.18C2.86045 8.29042 3.77124 6.5495 5.11861 5.17676C5.2581 5.03479 5.33548 4.84322 5.33372 4.6442C5.33196 4.44517 5.25121 4.255 5.10924 4.11551C4.96727 3.97603 4.7757 3.89865 4.57667 3.90041C4.37765 3.90217 4.18748 3.98292 4.04799 4.12489C1.98379 6.22632 0.827209 9.05422 0.827209 11.9999C0.827209 14.9456 1.98379 17.7735 4.04799 19.8749C4.11629 19.9479 4.1985 20.0065 4.28979 20.0473C4.38108 20.0881 4.4796 20.1102 4.57956 20.1124C4.67953 20.1146 4.77891 20.0967 4.87188 20.0599C4.96484 20.0231 5.0495 19.968 5.12089 19.898C5.19227 19.828 5.24894 19.7444 5.28755 19.6522C5.32617 19.56 5.34595 19.461 5.34574 19.361C5.34553 19.261 5.32532 19.1621 5.28632 19.07C5.24732 18.9779 5.1903 18.8946 5.11861 18.8249C4.26051 17.9512 3.57535 16.9232 3.09924 15.7949Z" fill="#03103E"/>
</g>
<defs>
<clipPath id="clip0_29_814">
<rect width="24" height="24" fill="white" transform="translate(0.083313)"/>
</clipPath>
</defs>
</svg>
