<svg width="25" height="24" viewBox="0 0 25 24" fill="none" xmlns="http://www.w3.org/2000/svg">
<g id="Path">
<path id="Vector" d="M22.125 18.75C22.1248 19.3804 21.8977 19.9896 21.4853 20.4664C21.073 20.9432 20.5028 21.2556 19.879 21.3466C19.2552 21.4376 18.6195 21.3011 18.0881 20.9621C17.5567 20.623 17.165 20.104 16.9847 19.5H7.5C6.30653 19.5 5.16193 19.0259 4.31802 18.182C3.47411 17.3381 3 16.1935 3 15C3 13.8065 3.47411 12.6619 4.31802 11.818C5.16193 10.9741 6.30653 10.5 7.5 10.5H16.5C17.0967 10.5 17.669 10.2629 18.091 9.84099C18.5129 9.41903 18.75 8.84674 18.75 8.25C18.75 7.65326 18.5129 7.08097 18.091 6.65901C17.669 6.23705 17.0967 6 16.5 6H7.5C7.30109 6 7.11032 5.92098 6.96967 5.78033C6.82902 5.63968 6.75 5.44891 6.75 5.25C6.75 5.05109 6.82902 4.86032 6.96967 4.71967C7.11032 4.57902 7.30109 4.5 7.5 4.5H16.5C17.4946 4.5 18.4484 4.89509 19.1516 5.59835C19.8549 6.30161 20.25 7.25544 20.25 8.25C20.25 9.24456 19.8549 10.1984 19.1516 10.9017C18.4484 11.6049 17.4946 12 16.5 12H7.5C6.70435 12 5.94129 12.3161 5.37868 12.8787C4.81607 13.4413 4.5 14.2044 4.5 15C4.5 15.7957 4.81607 16.5587 5.37868 17.1213C5.94129 17.6839 6.70435 18 7.5 18H16.9847C17.165 17.396 17.5567 16.877 18.0881 16.5379C18.6195 16.1989 19.2552 16.0624 19.879 16.1534C20.5028 16.2444 21.073 16.5568 21.4853 17.0336C21.8977 17.5104 22.1248 18.1196 22.125 18.75Z" fill="#03103E"/>
</g>
</svg>
