<svg width="45" height="45" viewBox="0 0 45 45" fill="none" xmlns="http://www.w3.org/2000/svg">
<g id="MapTrifold">
<path id="Vector" d="M40.2398 8.73452C40.0714 8.60327 39.8753 8.5121 39.6663 8.46794C39.4574 8.42377 39.2411 8.42778 39.034 8.47964L28.2885 11.1656L17.5043 5.77261C17.2038 5.62274 16.8596 5.58533 16.534 5.66714L5.28398 8.47964C4.97976 8.55568 4.70968 8.73123 4.51667 8.97839C4.32366 9.22554 4.2188 9.53011 4.21875 9.8437V35.1562C4.21878 35.3699 4.26751 35.5807 4.36123 35.7728C4.45496 35.9648 4.59121 36.133 4.75964 36.2645C4.92807 36.3959 5.12426 36.4873 5.33329 36.5316C5.54233 36.576 5.75871 36.5721 5.96602 36.5203L16.7115 33.8343L27.4957 39.2273C27.6915 39.3238 27.9067 39.3743 28.125 39.375C28.24 39.3749 28.3545 39.3607 28.466 39.3328L39.716 36.5203C40.0202 36.4442 40.2903 36.2687 40.4833 36.0215C40.6763 35.7744 40.7812 35.4698 40.7812 35.1562V9.8437C40.7813 9.62982 40.7326 9.41875 40.6387 9.22654C40.5449 9.03433 40.4085 8.86606 40.2398 8.73452ZM16.875 30.9375C16.76 30.9375 16.6455 30.9517 16.534 30.9796L7.03125 33.3544V10.9423L16.7115 8.52183L16.875 8.60269V30.9375ZM37.9688 34.0576L28.2885 36.4781L28.125 36.3972V14.0625C28.2399 14.063 28.3544 14.0494 28.466 14.022L37.9688 11.6455V34.0576Z" fill="white"/>
</g>
</svg>
